# xmcd
#
# Track frame offsets: 
#        150
#        12078
#        24234
#        34345
#        45839
#        56865
#        67153
#        78774
#        90780
#        100071
#        111727
#        120268
#        133024
#        143895
#        153086
#        164855
#        176235
#        185401
#        198607
#        210253
#
# Disc length: 2945 seconds
#
# Revision: 1
# Processed by: cddbd v1.5.2PL0 Copyright (c) Steve Scherf et al.
# Submitted via: ExactAudioCopy v1.3
#
DISCID=0c0b7f14
DTITLE=Don Gibson - 80 Original Hits And Rarities_CD3
DYEAR=1900
DGENRE=Country
TTITLE0=Give Myself A Party
TTITLE1=Blues In My Heart
TTITLE2=If You Don't Know It
TTITLE3=We Could
TTITLE4=Look Who's Blue
TTITLE5=I Can't Leave
TTITLE6=Take Me As I Am
TTITLE7=Bad Bad Day
TTITLE8=That Lonesome Valley
TTITLE9=Faith Unlocks The Door
TTITLE10=Canaan's Land
TTITLE11=Where No One Stands Alone
TTITLE12=Satisfied
TTITLE13=Wait For The Light To Shine
TTITLE14=Lord I'm Coming Home
TTITLE15=Evening Prayer
TTITLE16=Climbing Up The Mountain
TTITLE17=Known Only To Him
TTITLE18=Ice Cold Heart
TTITLE19=Taller Than Trees
EXTD=
EXTT0=
EXTT1=
EXTT2=
EXTT3=
EXTT4=
EXTT5=
EXTT6=
EXTT7=
EXTT8=
EXTT9=
EXTT10=
EXTT11=
EXTT12=
EXTT13=
EXTT14=
EXTT15=
EXTT16=
EXTT17=
EXTT18=
EXTT19=
PLAYORDER=
